<svg width="429" height="407" viewBox="0 0 429 407" fill="none" xmlns="http://www.w3.org/2000/svg">
<path opacity="0.2" fill-rule="evenodd" clip-rule="evenodd" d="M254.382 0.0133773C297.695 0.902045 327.306 39.0861 359.12 66.4137C387.018 90.378 417.612 114.049 426.972 148.265C436.042 181.424 411.957 212.848 408.492 246.909C403.548 295.527 438.99 354.649 402.415 389.716C367.189 423.491 304.875 397.928 254.382 394.668C207.988 391.672 157.696 397.553 120.578 371.516C83.7051 345.65 79.2991 298.161 60.752 258.841C39.5063 213.8 -15.5821 170.449 4.22554 124.845C24.3382 78.5391 98.8867 85.6702 146.229 62.0457C184.489 42.9533 210.965 -0.877427 254.382 0.0133773Z" fill="#AC92FF"/>
</svg>
