<svg width="371" height="29" viewBox="0 0 371 29" fill="none" xmlns="http://www.w3.org/2000/svg">
<path d="M341.823 21.4785C341.126 21.6052 340.492 21.6052 339.795 21.7953L339.795 21.8587C339.478 21.6052 339.098 21.4785 338.655 21.4151C337.514 21.2884 336.31 21.1617 335.17 21.035C335.043 21.035 334.98 21.0983 335.043 21.225C335.043 21.2884 335.106 21.3518 335.106 21.3518C335.74 21.6052 336.437 21.8587 337.134 22.0488C337.324 22.1121 337.514 22.1755 337.704 22.1755C338.908 22.0488 340.112 22.5557 341.316 22.6824C341.569 22.6824 341.823 22.8091 342.076 22.8091C343.407 22.7458 344.674 23.0626 346.005 23.316C346.385 23.3794 346.702 23.4428 347.082 23.4428C348.223 23.3794 349.3 23.6328 350.377 23.9497C350.377 23.9497 350.44 24.013 350.44 24.0764C349.743 24.2665 349.046 24.1398 348.349 24.013C346.955 23.6962 345.561 23.6328 344.104 23.5695C343.724 23.5695 343.407 23.5695 343.027 23.5061C341.886 23.1893 340.746 23.1259 339.542 23.0626C339.415 23.0626 339.352 23.1259 339.352 23.1893C339.352 23.2527 339.415 23.316 339.415 23.316C340.175 23.6328 340.936 23.8863 341.76 23.8229C342.203 23.8229 342.647 23.8229 343.153 23.8229C343.66 23.8229 344.167 23.9497 344.484 24.3932C344.801 24.8367 345.118 24.8367 345.498 24.71C346.005 24.5199 346.512 24.5199 346.955 24.3932C347.335 24.3298 347.779 24.3298 348.159 24.5199C348.539 24.71 348.92 24.71 349.363 24.71C349.553 24.71 349.743 24.7734 349.87 24.9635C349.933 25.0902 350.06 25.2169 350.123 25.2803C350.757 25.5971 351.391 25.9139 352.151 25.9139C352.721 25.9139 353.228 26.0406 353.799 26.1674C354.749 26.3575 355.699 26.5476 356.65 26.6109C357.41 26.6743 358.171 26.8644 358.868 26.9911C359.184 27.0545 359.438 27.1178 359.755 27.1178C361.592 27.1812 363.366 27.7515 365.141 27.8782C365.204 27.8782 365.267 28.0683 365.267 28.1316C365.267 28.195 365.141 28.2584 365.077 28.3217C365.014 28.3217 364.887 28.3851 364.76 28.3217C364.19 28.2584 363.62 28.2584 363.113 28.195C361.909 28.0683 360.705 27.8782 359.501 27.7514C358.361 27.6247 357.157 27.498 356.016 27.3079C355.319 27.2445 354.622 27.1812 353.925 27.1178C353.672 27.1178 353.418 27.1178 353.165 26.9911C352.405 26.7376 351.581 26.7376 350.757 26.7376C349.11 26.7376 347.526 26.5476 345.878 26.4208C345.625 26.4208 345.371 26.3575 345.118 26.3575C344.611 26.3575 344.104 26.2941 343.597 26.1674C342.963 25.9773 342.33 25.9139 341.633 25.8506C340.556 25.7872 339.542 25.7238 338.465 25.5971C337.451 25.4704 336.437 25.2803 335.487 25.1536C334.599 25.0268 333.649 24.9635 332.762 24.9001C331.938 24.8367 331.178 24.7734 330.354 24.6467C329.594 24.5199 328.833 24.4566 328.073 24.3932C325.665 24.1398 323.257 23.9497 320.786 23.6962C319.709 23.5695 318.695 23.4428 317.618 23.316C316.097 23.1893 314.577 23.0626 313.056 22.8725C311.155 22.6824 309.254 22.4923 307.29 22.4289C306.149 22.4289 305.072 22.2389 303.995 22.0488C303.425 21.9854 302.918 21.922 302.348 21.8587C301.27 21.7953 300.257 21.732 299.179 21.6052C298.799 21.6052 298.482 21.5419 298.102 21.5419C297.215 21.6052 296.265 21.4785 295.378 21.3518C294.554 21.225 293.794 21.225 292.97 21.1617C291.576 21.0983 290.119 20.9716 288.725 20.9082C288.344 20.9082 287.901 20.9082 287.521 20.8449C286.19 20.6548 284.796 20.5914 283.402 20.5914C282.959 20.5914 282.515 20.5281 282.008 20.5281C280.677 20.4013 279.41 20.2746 278.08 20.2746C277.636 20.2746 277.192 20.2746 276.686 20.2112C275.482 20.0211 274.278 20.0845 273.074 20.0211C271.933 19.9578 270.856 19.8944 269.716 19.8311C268.892 19.7677 268.068 19.7677 267.308 19.7043C266.167 19.641 265.09 19.5776 263.95 19.5142C263.633 19.5142 263.316 19.4509 263.063 19.4509C261.478 19.5776 259.894 19.3875 258.374 19.3875C257.487 19.3875 256.536 19.2608 255.649 19.2608C254.002 19.1974 252.291 19.1341 250.643 19.0707C249.503 19.0073 248.426 19.0073 247.285 18.944C246.651 18.8806 245.954 18.8806 245.321 18.944C245.004 19.0073 244.687 19.0073 244.434 18.944C243.8 18.8172 243.103 18.8172 242.469 18.8172C241.076 18.7539 239.618 18.6905 238.224 18.6905C237.971 18.6905 237.717 18.6272 237.464 18.6272C236.197 18.7539 234.929 18.6272 233.662 18.6272C232.205 18.6272 230.747 18.6905 229.227 18.6905C228.276 18.6905 227.326 18.6272 226.312 18.6272C225.932 18.6272 225.488 18.5638 225.108 18.6272C224.221 18.7539 223.397 18.6905 222.51 18.6272C221.37 18.5638 220.292 18.4371 219.152 18.6272C219.025 18.6272 218.835 18.6272 218.708 18.6272C216.554 18.4371 214.336 18.6272 212.182 18.5638C210.154 18.5004 208.127 18.5004 206.099 18.5004C204.705 18.5004 203.248 18.6272 201.854 18.5004C199.256 18.6272 196.658 18.5004 194.123 18.6905C192.476 18.8172 190.765 18.7539 189.118 18.7539C188.484 18.7539 187.787 18.7539 187.154 18.7539C185.506 18.7539 183.795 18.8172 182.148 18.8806C180.881 18.8806 179.613 18.8806 178.346 18.944C176.065 19.0707 173.784 19.0707 171.503 19.0707C170.869 19.0707 170.172 19.0707 169.539 19.1341C167.321 19.1974 165.103 19.2608 162.822 19.1974C162.442 19.1974 161.998 19.1974 161.618 19.2608C159.527 19.4509 157.373 19.4509 155.219 19.5142C153.571 19.5776 151.987 19.5776 150.34 19.641C149.643 19.641 148.946 19.7043 148.249 19.3875C148.058 19.3241 147.805 19.3241 147.678 19.3875C146.918 19.7677 146.094 19.7677 145.27 19.7677C143.37 19.8311 141.532 19.8311 139.631 19.8944C138.681 19.8944 137.73 19.9578 136.78 20.0211C136.463 20.0211 136.146 20.0211 135.893 20.0845C135.259 20.0845 134.816 19.8944 134.752 19.1974C134.752 19.1974 134.562 19.1341 134.499 19.1341C134.435 19.1341 134.435 19.1974 134.372 19.2608C134.245 19.9578 133.802 20.1479 133.168 20.1479C131.774 20.1479 130.444 20.2112 129.05 20.2746C126.135 20.4013 123.283 20.528 120.369 20.528C119.482 20.528 118.531 20.6548 117.644 20.6548C115.68 20.7181 113.716 20.7815 111.688 20.8449C111.371 20.8449 111.054 20.8449 110.801 20.9082C109.027 21.0983 107.253 21.0983 105.478 21.0983C103.387 21.1617 101.296 21.2884 99.2689 21.3518C98.5719 21.3518 97.8749 21.4151 97.1145 21.4151C94.9602 21.4785 92.7425 21.5419 90.5881 21.6686C89.9545 21.6686 89.2575 21.7953 88.6239 21.8587C87.0398 21.9854 85.4557 21.8587 83.935 21.922C83.3014 21.9854 82.7311 21.9854 82.0974 21.8587C81.844 21.7953 81.5905 21.7953 81.3371 21.8587C79.8164 22.0488 78.2957 21.8587 76.775 21.922C75.3176 21.9854 73.8603 21.922 72.3395 21.9854C70.8822 21.9854 69.4248 22.0488 67.9041 22.1121C67.4606 22.1121 66.9537 22.1121 66.5735 22.2388C66.0032 22.3656 65.4963 22.5557 64.9261 22.4289C64.3558 22.3656 63.8489 22.4923 63.2786 22.3022C63.0252 22.1755 62.645 22.2388 62.3915 22.3022C60.8708 22.619 59.2867 22.5557 57.7026 22.5557C55.8018 22.5557 53.9642 22.5557 52.0633 22.5557C50.7961 22.5557 49.5288 22.5557 48.2615 22.5557C46.424 22.4923 44.5865 22.619 42.8123 22.4289C42.6222 22.4289 42.4321 22.4289 42.1787 22.4289C40.658 22.6824 39.1372 22.4289 37.6165 22.3656C37.2364 22.3656 36.7928 22.3022 36.4127 22.3022C35.082 22.3656 33.7514 22.3022 32.4841 22.3022C32.0406 22.3022 31.597 22.3022 31.0901 22.3022C30.6466 22.3022 30.2031 22.3022 29.6961 22.3022C28.5556 22.1755 27.3517 22.1755 26.2112 22.1755C25.134 22.1121 24.0568 22.1121 23.043 22.0488C21.3322 21.9854 19.6214 21.8587 17.9106 21.7953C15.6295 21.6686 13.3485 21.6052 11.0674 21.4151C9.22989 21.2884 7.32901 21.0349 5.49145 20.8449C4.79446 20.7815 4.09744 20.528 3.40045 20.4013C2.51337 20.2112 1.81641 19.7677 1.05606 19.3241C0.675872 19.1341 0.422393 18.7539 0.359039 18.3737C0.232299 17.8668 0.10559 17.3599 0.0422051 16.9163C-0.0211493 15.9659 -0.0845038 15.0154 0.422424 14.1284C0.485778 13.9383 0.549133 13.7482 0.612487 13.5581C0.865936 12.7344 1.30948 12.1641 2.06985 11.7206C2.5134 11.4671 2.95691 11.277 3.52719 11.3404C4.16083 11.3404 4.85785 11.4038 5.49145 11.4038C5.80829 11.4038 6.12506 11.4038 6.37854 11.3404C7.07553 11.0869 7.77252 11.1503 8.46951 11.2137C8.84967 11.277 9.29324 11.277 9.6734 11.277C10.0536 11.277 10.4972 11.277 10.8773 11.0869C11.4476 10.7701 12.0179 10.7068 12.6515 10.7701C14.6158 10.8335 16.58 10.7701 18.6076 10.8968C19.8115 10.9602 21.0154 10.8968 22.2193 10.9602C22.8529 10.9602 23.55 11.0236 24.1836 11.0236C25.0707 11.0236 25.8944 11.0869 26.7815 11.0869C28.6823 11.1503 30.6466 11.0236 32.5475 11.277C32.6108 11.277 32.6742 11.277 32.6742 11.277C32.9277 11.277 33.1178 11.1503 33.1811 10.8335C33.1811 10.58 33.3712 10.5167 33.5613 10.4533C33.688 10.4533 33.8781 10.3899 34.0049 10.4533C35.1454 10.58 36.3493 10.58 37.4898 10.58C38.567 10.58 39.5808 10.7701 40.658 10.6434C40.9114 10.6434 41.1649 10.6434 41.4183 10.58C41.9886 10.3266 42.6223 10.3899 43.1925 10.5167C43.636 10.58 44.0796 10.58 44.5231 10.5167C45.03 10.4533 45.537 10.4533 46.0439 10.4533C46.2973 10.4533 46.5508 10.4533 46.8042 10.5167C47.6279 10.8335 48.4517 10.7701 49.3387 10.7701C50.5426 10.7068 51.7465 10.7701 53.0138 10.8335C53.0771 10.8335 53.1405 10.8335 53.1405 10.8968C53.2039 11.0236 53.1405 11.0869 53.0138 11.0869C52.8871 11.1503 52.697 11.1503 52.5703 11.2137C52.5703 11.2137 52.5069 11.277 52.5069 11.3404C52.5069 11.4038 52.5069 11.4671 52.5703 11.4671C52.6336 11.5305 52.7603 11.5938 52.8237 11.5938C53.2672 11.5938 53.7108 11.5938 54.1543 11.5938C54.3444 11.5938 54.5345 11.4671 54.5979 11.277C54.788 10.7068 55.2315 10.5167 55.7384 10.4533C56.5621 10.3899 57.3225 10.2632 58.1462 10.3899C58.463 10.4533 58.7798 10.4533 59.0333 10.3899C59.4135 10.3266 59.857 10.3266 60.2372 10.4533C60.4273 10.5167 60.6173 10.5167 60.8708 10.4533C61.3144 10.3899 61.7579 10.3266 62.2014 10.4533C62.3915 10.5167 62.5816 10.4533 62.7717 10.3899C63.0885 10.3899 63.4053 10.2632 63.6588 10.3266C65.0528 10.5167 66.3834 10.2632 67.7774 10.3266C70.4387 10.3899 73.0365 10.1365 75.6978 10.2632C75.8245 10.2632 76.0146 10.2632 76.1413 10.2632C79.1194 10.0098 82.0975 10.0731 85.0755 9.9464C85.8359 9.9464 86.5963 9.88304 87.3566 9.9464C88.0536 10.0098 88.7506 9.9464 89.4476 9.81968C90.0179 9.75631 90.5247 9.69295 91.095 9.69295C92.9326 9.62959 94.7701 9.56622 96.5443 9.4395C96.9244 9.4395 97.2412 9.4395 97.6214 9.4395C97.8749 9.4395 98.1283 9.50286 98.3818 9.4395C99.7758 9.24941 101.233 9.31277 102.627 9.31277C103.261 9.31277 103.958 9.31277 104.591 9.24941C105.352 9.18605 106.112 9.12268 106.872 9.18605C107.063 9.18605 107.253 9.18605 107.506 9.18605C108.266 9.12268 109.027 9.05932 109.787 9.05932C110.547 8.99596 111.308 8.99596 112.068 8.80587C112.448 8.67914 112.892 8.61578 113.272 8.7425C114.096 8.93259 114.856 8.80587 115.68 8.80587C116.504 8.80587 117.327 8.80587 118.088 8.80587C119.482 8.7425 120.812 8.67914 122.206 8.67914C122.713 8.67914 123.22 8.61578 123.727 8.80587C123.79 8.80587 123.79 8.86923 123.79 8.93259C123.79 8.99596 123.79 9.05932 123.79 9.05932C123.727 9.12268 123.664 9.18605 123.537 9.24941C123.03 9.37614 122.523 9.37614 122.016 9.31277C120.876 9.24941 119.672 9.4395 118.531 9.18605C117.834 9.24941 117.137 9.37614 116.44 9.4395C116.06 9.50286 115.68 9.56623 115.363 9.50286C114.729 9.31277 114.159 9.4395 113.589 9.56623C113.272 9.62959 112.955 9.62959 112.702 9.62959C111.561 9.62959 110.484 9.69295 109.344 9.69295C109.09 9.69295 108.837 9.62959 108.583 9.62959C107.95 9.56622 107.253 9.56622 106.619 9.69295C106.175 9.81968 105.732 9.81968 105.288 9.81968C103.894 9.69295 102.437 9.88304 101.043 9.88304C100.726 9.88304 100.409 9.9464 100.156 10.0098C99.3956 10.2632 98.5719 10.2632 97.7481 10.2632C97.1779 10.2632 96.6076 10.2632 96.1007 10.2632C95.9106 10.2632 95.7205 10.3266 95.4671 10.3266C95.5938 10.3899 95.6572 10.5167 95.7205 10.5167C96.7343 10.5167 97.7481 10.5167 98.762 10.5167C99.459 10.5167 100.156 10.5167 101.043 10.58C100.219 11.0869 99.5223 11.3404 98.762 11.2137C98.1283 11.0869 97.4313 11.0869 96.7977 11.277C96.2908 11.4038 95.7839 11.3404 95.277 11.277C94.8334 11.2137 94.3899 11.2137 93.9463 11.3404C93.4395 11.5305 92.9326 11.5305 92.4257 11.3404C91.7287 11.1503 91.0316 11.1503 90.3347 11.277C89.6377 11.3404 88.9407 11.4038 88.2437 11.4038C87.3566 11.3404 86.4062 11.4038 85.5191 11.5305C84.4419 11.6572 83.4281 11.7839 82.3509 11.5938C82.0975 11.5305 81.844 11.5938 81.5905 11.5938C80.45 11.7206 79.2461 11.8473 78.1056 11.8473C77.7254 11.8473 77.4086 11.9107 77.1551 12.2275C76.2047 12.1641 76.2047 12.1641 75.8245 12.3542C76.268 12.4809 76.7116 12.4176 77.0918 12.2275C77.3452 12.3542 77.662 12.4809 77.9789 12.4809C79.753 12.3542 81.5272 12.4809 83.3014 12.4809C85.0122 12.4809 86.723 12.4176 88.4338 12.2908C89.0674 12.2275 89.6377 12.2275 90.2713 12.2275C90.9049 12.2275 91.4752 12.1641 92.1088 12.1641C92.8692 12.1007 93.6295 12.0374 94.3899 12.1007C94.8335 12.1007 95.277 12.0374 95.7839 12.0374C96.4175 12.0374 96.9878 11.9107 97.6214 12.0374C97.8749 12.1007 98.1283 12.0374 98.3818 12.0374C99.3322 11.9107 100.283 11.8473 101.233 11.9107C101.74 11.9107 102.247 11.9107 102.754 11.9107C103.197 11.9107 103.641 11.9107 104.148 11.9107C104.591 11.9107 104.908 12.1641 105.098 12.5443C105.098 12.6077 105.162 12.6077 105.225 12.671C105.288 12.671 105.352 12.7344 105.352 12.671C105.795 12.5443 106.175 12.3542 106.619 12.2275C106.746 12.1641 106.682 12.0374 106.619 11.974C106.492 11.9107 106.429 11.7839 106.556 11.7839C107.126 11.7206 107.696 11.7206 108.203 11.7206C108.9 11.7206 109.597 11.7206 110.294 11.5938C110.801 11.5305 111.308 11.5305 111.815 11.5305C112.132 11.5305 112.448 11.4671 112.638 11.277C112.702 11.2137 112.765 11.0869 112.765 11.0236C112.765 10.9602 112.702 10.8335 112.638 10.7701C112.575 10.7068 112.448 10.7068 112.322 10.7068C111.941 10.7068 111.625 10.7068 111.244 10.7701C110.484 10.8335 109.724 11.0236 108.963 11.0236C108.266 11.0869 107.569 11.0236 106.872 10.9602C106.239 10.8968 105.542 10.8969 104.908 11.0236C104.275 11.1503 103.578 11.0869 102.944 11.0236C102.881 11.0236 102.817 10.9602 102.817 10.8968C102.881 10.8335 102.881 10.7068 102.944 10.7068C103.197 10.6434 103.451 10.58 103.704 10.58C104.972 10.5167 106.239 10.5167 107.506 10.5167C109.154 10.5167 110.738 10.4533 112.385 10.4533C113.335 10.4533 114.286 10.4533 115.236 10.1999C115.743 10.0731 116.123 10.3899 116.567 10.4533C116.694 10.4533 116.757 10.58 116.694 10.7068C116.694 10.7701 116.63 10.8335 116.567 10.8335C116.377 10.8969 116.187 10.9602 115.997 10.9602C115.49 10.8968 114.983 10.7701 114.476 10.8968C114.349 10.8968 114.159 10.9602 114.096 11.1503C114.032 11.277 114.223 11.4038 114.413 11.4671C114.539 11.4671 114.603 11.4671 114.729 11.4671C114.856 11.4671 114.92 11.4671 115.046 11.4671C116.44 11.4671 117.898 11.5305 119.292 11.5305C119.418 11.5305 119.482 11.5305 119.608 11.5938C119.672 11.6572 119.799 11.7206 119.799 11.7839C119.799 11.8473 119.735 11.974 119.672 12.0374C119.608 12.1641 119.482 12.2275 119.292 12.4176C119.608 12.4176 119.799 12.4176 119.989 12.4176C120.242 12.4809 120.496 12.3542 120.622 12.1641C121.002 11.5305 121.636 11.3404 122.27 11.2137C123.093 11.0869 123.98 10.8969 124.804 11.1503C125.184 11.277 125.628 11.2137 126.008 11.2137C126.832 11.2137 127.656 11.1503 128.416 11.0869C128.859 11.0869 129.303 11.1503 129.747 11.277C130.253 11.4671 130.697 11.4671 131.204 11.2137C131.394 11.0869 131.711 11.0236 131.901 11.0869C132.408 11.1503 132.915 11.0236 133.422 10.8969C133.738 10.8335 134.119 10.8335 134.435 11.0236C134.182 11.4038 133.802 11.5305 133.422 11.5938C133.168 11.6572 132.915 11.6572 132.661 11.7206C132.598 11.7206 132.598 11.8473 132.534 11.9107C132.534 11.9107 132.598 11.974 132.661 11.974C133.295 12.1008 133.865 12.1008 134.435 11.9107C134.689 11.8473 134.816 11.5305 134.689 11.277C134.625 11.1503 134.499 11.0236 134.435 10.8969C134.752 10.9602 135.132 11.0236 135.449 11.0869C135.639 11.1503 135.829 11.0236 135.956 10.8969C136.019 10.9602 136.083 11.0236 136.146 11.0869C136.526 11.4038 136.97 11.4671 137.413 11.2137C137.73 10.9602 138.11 10.8335 138.554 10.8335C139.695 10.7068 140.772 10.7701 141.912 10.7701C142.419 10.7701 142.673 10.8969 142.736 11.4038C142.736 11.5305 142.863 11.5305 142.989 11.4671C143.053 11.4038 143.18 11.3404 143.18 11.2137C143.433 10.6434 143.813 10.5167 144.383 10.5167C144.827 10.5167 145.144 10.7068 145.27 11.1503C145.334 11.3404 145.524 11.3404 145.651 11.2137C146.031 10.6434 146.538 10.4533 147.171 10.4533C147.995 10.4533 148.819 10.3899 149.579 10.3899C149.706 10.3899 149.896 10.3899 150.023 10.3899C150.34 10.4533 150.593 10.58 150.72 10.8969C150.783 11.0236 150.846 11.1503 151.037 11.1503C151.227 11.1503 151.29 11.0236 151.353 10.8969C151.417 10.7701 151.417 10.58 151.48 10.4533C151.543 10.3266 151.67 10.1365 151.797 10.1365C152.367 10.0731 153.001 9.94641 153.571 10.1365C154.395 10.3899 155.155 10.3899 155.979 10.1365C156.422 10.0098 156.866 9.94641 157.309 10.0098C158.133 10.0731 158.957 10.0731 159.717 10.0731C160.224 10.0731 160.731 10.0098 161.238 9.9464C161.428 9.9464 161.555 9.75632 161.428 9.50286C161.428 9.37614 161.365 9.31278 161.301 9.24941C161.301 9.05932 161.301 8.9326 161.491 8.86923C161.682 8.80587 161.872 8.67914 162.062 8.67914C162.505 8.61578 162.949 8.67914 163.456 8.67914C163.709 8.67914 163.963 8.74251 164.216 8.67914C164.913 8.48905 165.547 8.61578 166.054 8.99596C165.863 9.05932 165.61 8.99596 165.293 8.99596C164.976 8.99596 164.66 8.99596 164.406 9.05932C164.089 9.05932 163.773 9.12268 163.519 9.12268C163.202 9.18605 163.012 9.37614 163.012 9.56623C163.012 9.75632 163.202 10.0098 163.519 10.0098C164.279 10.0098 165.04 10.0098 165.8 10.0098C165.863 10.0098 165.99 10.0731 166.054 10.1365L166.054 10.2632C165.737 10.3266 165.357 10.3899 165.04 10.4533C164.913 10.4533 164.786 10.58 164.66 10.6434C164.66 10.6434 164.596 10.7701 164.66 10.7701C165.04 10.9602 165.42 11.0869 165.8 10.9602C166.37 10.8335 166.877 10.6434 167.448 10.6434C167.511 10.6434 167.574 10.5167 167.574 10.4533C167.574 10.2632 167.574 10.1365 167.764 10.1365C167.954 10.1365 168.145 10.1365 168.335 10.1365C168.398 10.1365 168.525 10.1999 168.588 10.3266C169.032 10.9602 169.602 11.1503 170.299 10.9602C170.616 10.8969 170.869 10.8969 171.186 10.8335C171.249 10.8335 171.313 10.6434 171.249 10.58C171.249 10.4533 171.123 10.2632 171.186 10.1365C171.249 10.0098 171.439 9.94641 171.566 9.94641C172.136 9.81968 172.77 9.81968 173.34 9.94641C173.404 9.94641 173.467 10.1365 173.404 10.1999C173.34 10.2632 173.214 10.3266 173.15 10.3899C173.087 10.4533 173.024 10.58 173.087 10.6434C173.087 10.7068 173.214 10.8335 173.277 10.8335C173.657 10.8335 174.101 10.7701 174.354 10.4533C174.608 10.1365 174.861 9.94641 175.241 9.94641C176.002 9.81968 176.762 9.75632 177.522 9.62959C178.029 9.56623 178.536 9.62959 178.98 9.81968C179.296 9.94641 179.423 10.0731 179.36 10.1365C179.233 10.3266 179.043 10.3266 178.853 10.3899C178.536 10.4533 178.219 10.4533 177.966 10.4533C177.902 10.4533 177.839 10.5167 177.712 10.58C178.536 10.6434 179.36 10.7701 180.12 10.8335C180.5 10.8335 180.817 10.8335 181.197 10.7701C181.894 10.7068 182.591 10.6434 183.288 10.7068C183.605 10.7701 183.859 10.6434 184.175 10.6434C184.429 10.58 184.492 10.4533 184.366 10.1365C184.302 10.0098 184.302 9.94641 184.429 9.88304C184.492 9.88304 184.619 9.81968 184.746 9.81968C185.253 9.88304 185.76 9.88304 186.266 9.81968C186.647 9.75632 187.09 9.81968 187.47 9.81968C187.914 9.81968 188.231 9.94641 188.484 10.3266C188.801 10.7701 189.244 10.58 189.561 10.3899C189.751 10.2632 189.878 10.0098 190.068 9.81968C190.448 9.50287 190.892 9.31278 191.335 9.4395C192.096 9.69295 192.793 9.75632 193.553 9.69295C193.743 9.69295 193.933 9.75632 194.123 9.75632C194.314 9.75632 194.314 9.88304 194.25 10.0731C194.123 10.4533 194.187 10.6434 194.567 10.6434C195.581 10.6434 196.595 10.58 197.608 10.58C197.862 10.58 198.179 10.5167 198.242 10.1999C198.369 9.81968 198.559 9.75632 198.939 9.75632C199.066 9.75632 199.256 9.75632 199.383 9.81968C199.509 9.81968 199.509 9.94641 199.509 10.0731C199.446 10.3266 199.699 10.4533 199.826 10.5167C200.27 10.7068 200.713 10.5167 201.093 10.2632C201.093 10.2632 201.03 10.0731 200.967 10.0098C200.903 9.88304 200.903 9.81968 201.03 9.75632C201.727 9.56623 202.424 9.69296 203.058 10.0731L203.058 10.0098C203.184 10.2632 203.374 10.4533 203.691 10.3266L203.628 10.3899C204.071 10.3899 204.515 10.2632 204.959 10.3266C205.402 10.3899 205.846 10.5167 206.289 10.58C206.416 10.58 206.669 10.4533 206.669 10.3899C206.669 10.3266 206.606 10.1999 206.543 10.1999C206.479 10.1365 206.353 10.1365 206.289 10.0731C206.289 10.0731 206.226 10.0098 206.226 9.94641C206.226 9.88304 206.289 9.81968 206.289 9.81968C206.986 9.75632 207.683 9.69295 208.38 9.62959C208.76 9.56623 209.077 9.75632 209.204 10.1365C209.267 10.39 209.521 10.5167 209.774 10.58C210.091 10.6434 210.408 10.6434 210.661 10.6434C211.992 10.6434 213.386 10.6434 214.716 10.6434C215.16 10.6434 215.604 10.58 216.047 10.3899C216.11 10.3899 216.174 10.3266 216.174 10.3266C216.237 10.1999 216.174 10.1365 216.047 10.1365C215.477 10.0731 214.843 10.0731 214.273 10.0098C214.273 10.0098 214.21 9.94641 214.21 9.88305C214.21 9.81968 214.273 9.75632 214.273 9.75632C214.463 9.69296 214.653 9.62959 214.843 9.69296C215.413 9.81968 215.92 9.88305 216.491 9.75632C216.807 9.69296 217.188 9.81968 217.504 9.81968C217.821 9.81968 218.075 9.88304 218.392 9.94641C218.392 10.1365 218.328 10.2632 218.328 10.3899C218.392 10.5167 218.518 10.6434 218.645 10.6434C218.962 10.7068 219.342 10.7701 219.659 10.8335C219.722 10.8335 219.786 10.9602 219.849 10.9602C219.786 11.0236 219.659 11.0236 219.595 11.0869C219.469 11.1503 219.342 11.1503 219.152 11.2137C219.152 11.2137 219.152 11.277 219.152 11.3404C219.152 11.4038 219.215 11.4038 219.279 11.4038C220.039 11.4671 220.799 11.2137 221.306 10.6434C221.56 10.6434 221.813 10.6434 222.003 10.6434C222.067 10.6434 222.067 10.5167 222.13 10.4533C222.067 10.39 221.94 10.3266 221.876 10.3266C221.686 10.3899 221.433 10.58 221.243 10.6434C221.116 10.5167 220.989 10.3266 220.863 10.1999C220.863 10.1365 220.799 10.0731 220.799 10.0731C220.863 10.0098 220.926 9.88305 220.989 9.88305C221.37 9.88305 221.686 9.81968 222.067 9.81968C222.447 9.81968 222.764 9.94641 223.017 10.2632C223.144 10.39 223.27 10.3266 223.397 10.1999C223.524 10.0731 223.587 9.88305 223.714 9.88305C224.284 9.75632 224.791 9.62959 225.361 9.69296C226.629 9.94641 227.896 9.81968 229.163 9.75632C229.48 9.75632 229.734 9.62959 229.987 9.4395C230.24 9.24941 230.557 9.24941 230.811 9.4395C231.128 9.75632 231.508 9.81968 231.951 9.81968C232.395 9.81968 232.838 9.81968 233.345 9.81968C233.409 9.81968 233.535 9.88304 233.599 9.94641C233.662 10.0098 233.472 10.2632 233.345 10.2632C233.028 10.3266 232.775 10.3266 232.458 10.39C232.331 10.39 232.268 10.5167 232.331 10.6434C232.331 10.7068 232.395 10.7068 232.458 10.7068C233.409 10.58 234.359 10.8335 235.309 10.58C235.373 10.58 235.436 10.5167 235.436 10.5167C235.373 10.4533 235.373 10.39 235.309 10.2632C235.246 10.1999 235.183 10.1365 235.119 10.0098C235.119 10.0098 235.119 9.88305 235.183 9.88305C235.246 9.81968 235.373 9.81968 235.436 9.81968C236.07 9.81968 236.64 9.75632 237.274 9.81968C238.097 9.81968 238.921 9.88305 239.682 9.75632C239.998 9.69296 240.315 9.75632 240.569 9.75632C241.202 9.81968 241.773 9.88305 242.406 9.88305C242.66 9.88305 242.786 10.0098 242.723 10.1365C242.66 10.1999 242.596 10.2632 242.469 10.2632C241.582 10.3266 240.759 10.39 239.872 10.2632C239.048 10.1365 238.224 10.1999 237.464 10.1999C237.4 10.1999 237.274 10.2632 237.274 10.39C237.274 10.4533 237.337 10.58 237.4 10.58C237.717 10.6434 237.971 10.7068 238.288 10.7701C238.604 10.8335 238.985 10.9602 239.365 11.1503C239.428 11.1503 239.555 11.0869 239.682 11.0236C240.062 10.7701 240.505 10.6434 240.949 10.7701C241.773 10.9602 242.533 10.8969 243.357 10.8969C243.737 10.8969 244.054 10.8969 244.434 10.8335C244.941 10.7068 245.448 10.7701 245.954 10.8969C246.335 11.0236 246.715 11.0869 247.158 11.0236C247.412 11.0236 247.665 11.0869 247.919 11.0869C248.109 11.0869 248.299 11.1503 248.489 11.1503C250.263 10.8969 252.037 10.8969 253.812 11.0236C253.875 11.0236 253.938 11.0236 253.938 11.0236C254.002 10.9602 254.128 10.9602 254.192 10.8969C254.192 10.8335 254.128 10.7068 254.065 10.6434C253.812 10.39 253.812 10.2632 254.065 10.1365C254.445 10.0098 254.825 9.88305 255.205 9.81968C255.649 9.69296 256.093 9.69296 256.473 10.0731C256.599 10.1999 256.726 10.2632 256.853 10.2632C257.36 10.1999 257.867 10.4533 258.31 10.5167C258.69 10.58 259.134 10.6434 259.514 10.58C260.084 10.4533 260.591 10.5167 261.162 10.58C261.922 10.7068 262.682 10.6434 263.443 10.39C263.696 10.2632 264.013 10.2632 264.33 10.1999C264.52 10.1999 264.773 10.1999 264.9 10.1999C265.407 10.3266 265.851 10.5167 266.357 10.2632C266.421 10.2632 266.484 10.2632 266.484 10.2632C267.625 10.7068 268.892 10.6434 270.032 11.0236C270.096 11.0236 270.096 11.2137 270.096 11.277C270.096 11.277 270.032 11.3404 269.969 11.3404C269.842 11.3404 269.779 11.3404 269.652 11.3404C269.145 11.1503 268.575 11.1503 268.005 11.2137C267.941 11.2137 267.815 11.277 267.751 11.3404C267.688 11.3404 267.688 11.4038 267.688 11.4671C267.688 11.5305 267.688 11.5939 267.751 11.5939C267.815 11.6572 267.941 11.7206 268.005 11.7206C268.702 11.7839 269.399 11.7839 270.159 11.7839C271.046 11.7839 271.87 11.7839 272.757 11.974C273.391 12.1008 274.088 12.1641 274.721 12.0374C274.785 12.0374 274.911 11.9107 274.911 11.8473C274.911 11.7839 274.785 11.6572 274.721 11.6572C274.468 11.5939 274.214 11.5939 273.961 11.5305C273.644 11.4671 273.454 11.2137 273.264 11.0236C274.088 11.1503 274.975 11.2137 275.799 11.2137C276.179 11.2137 276.622 11.277 277.002 11.277C277.699 11.3404 278.396 11.4038 279.093 11.4038C279.6 11.4038 280.107 11.5305 280.614 11.5939C280.741 11.5939 280.804 11.7206 280.741 11.7839C280.741 11.8473 280.677 11.8473 280.614 11.8473C280.171 11.8473 279.727 11.8473 279.283 11.8473C278.65 11.8473 278.08 11.7839 277.446 11.7839C277.383 11.7839 277.319 11.9107 277.319 11.974L277.383 12.1008C277.826 12.2908 278.27 12.3542 278.713 12.4176C279.6 12.4809 280.551 12.4809 281.438 12.5443C281.691 12.5443 281.945 12.4176 282.071 12.2275C282.198 12.0374 282.262 11.9107 282.388 11.7206C282.452 11.6572 282.578 11.5939 282.642 11.5939C282.768 11.5939 282.959 11.5939 283.085 11.7206C283.212 11.8473 283.149 11.974 283.085 12.1008C282.959 12.3542 283.022 12.4809 283.212 12.5443C283.339 12.6077 283.529 12.6077 283.656 12.6077C283.846 12.6077 284.099 12.5443 284.099 12.3542C284.162 11.974 284.416 11.8473 284.733 11.8473C285.303 11.8473 285.873 11.7206 286.38 12.0374C286.444 12.0374 286.444 12.1008 286.444 12.1641C286.444 12.2275 286.444 12.2908 286.38 12.2908C286.127 12.3542 285.937 12.4176 285.683 12.4809C285.62 12.4809 285.556 12.5443 285.556 12.5443C285.62 12.6077 285.62 12.7344 285.683 12.7344C286.57 12.8611 287.457 12.9878 288.408 13.1146C288.534 13.1146 288.598 13.1146 288.725 13.1146C290.499 12.9878 292.273 13.2413 293.984 13.3047C294.11 13.3047 294.174 13.3047 294.301 13.3047C295.504 13.2413 296.582 13.4947 297.722 13.8116C298.039 13.8749 298.292 13.8749 298.609 13.8749C298.926 13.8116 299.243 13.7482 299.496 13.8116C300.7 14.065 301.904 14.0017 303.108 14.1284C304.185 14.2551 305.199 14.1917 306.276 14.5086C306.53 14.5719 306.846 14.5719 307.163 14.5719C308.05 14.5719 308.874 14.5719 309.698 14.762C309.634 14.8254 309.508 14.8887 309.444 14.9521C309.381 14.9521 309.381 15.0155 309.381 15.0788C309.381 15.1422 309.444 15.2056 309.444 15.2056C309.571 15.2689 309.634 15.2056 309.634 15.0788C309.634 14.9521 309.634 14.8887 309.634 14.762C309.951 14.762 310.268 14.6986 310.521 14.6986C311.218 14.762 311.915 14.8254 312.612 14.9521C313.246 15.0788 313.943 15.1422 314.577 15.1422C315.21 15.1422 315.781 15.2689 316.224 15.7758C316.541 16.0926 316.985 16.0926 317.301 15.7758C317.618 15.459 317.872 15.3956 318.252 15.459C318.505 15.5224 318.759 15.5224 319.012 15.6491C319.836 15.9025 320.66 16.0926 321.547 16.0926C321.737 16.0926 321.927 16.156 322.117 16.2194C322.244 16.2827 322.37 16.4728 322.244 16.5995C322.18 16.6629 322.117 16.7896 322.054 16.7896C321.42 16.7896 320.723 16.7263 320.089 16.7263C320.026 16.7263 319.899 16.7896 319.836 16.7896L319.773 16.9164C319.899 17.1698 320.089 17.4233 320.406 17.55C320.913 17.7401 321.483 17.8668 322.054 17.8668C322.054 17.9935 322.117 18.1836 322.117 18.3103C322.18 18.6905 322.37 18.944 322.751 19.0707C323.067 19.1341 323.448 19.2608 323.701 19.4509C323.891 19.5776 324.208 19.641 324.398 19.5776C325.285 19.3242 326.172 19.4509 327.059 19.7677C327.186 19.8311 327.376 19.8944 327.503 19.8311C328.58 19.7677 329.594 20.2112 330.608 20.4013C331.051 20.5281 331.495 20.5914 331.938 20.5281C332.889 20.4013 333.839 20.4647 334.79 20.6548C335.106 20.7181 335.487 20.7181 335.867 20.7181C336.12 20.7815 336.374 20.7815 336.564 20.9082C337.007 21.1617 337.387 21.225 337.894 21.225C338.908 21.3518 339.922 21.4785 340.936 21.6052C341.253 21.6686 341.506 21.732 341.76 21.922C341.823 21.9854 341.823 22.1121 341.823 22.1755C341.823 22.1755 341.76 22.2389 341.696 22.2389C342.647 21.8587 342.203 21.732 341.823 21.4785ZM254.825 12.5443L254.825 12.4809C254.825 12.4809 254.825 12.6077 254.825 12.5443C254.889 12.5443 254.889 12.4809 254.952 12.4809L254.952 12.5443C254.889 12.5443 254.889 12.5443 254.825 12.5443ZM139.885 10.6434C139.885 10.7068 139.885 10.7068 139.885 10.7701C139.885 10.8335 139.885 10.8335 139.885 10.8969C139.885 10.7701 139.885 10.7068 139.885 10.6434ZM168.145 11.8473C168.145 11.9107 168.208 11.9107 168.208 11.974C168.145 11.9107 168.145 11.9107 168.145 11.8473ZM334.409 22.4289C334.473 22.4923 334.536 22.5557 334.599 22.619C334.599 22.619 334.663 22.6824 334.726 22.6824C334.79 22.6824 334.79 22.619 334.853 22.619C334.79 22.5557 334.79 22.4923 334.726 22.4289C334.599 22.4289 334.473 22.4923 334.409 22.4289ZM116.947 13.6848C117.074 13.6848 117.201 13.6848 117.327 13.6848C117.391 13.6848 117.454 13.6848 117.454 13.6215C117.454 13.6215 117.517 13.5581 117.517 13.4947C117.454 13.4947 117.327 13.368 117.264 13.4314C117.137 13.4947 117.011 13.5581 116.947 13.6848ZM160.731 10.0098C160.921 10.2632 161.238 10.3266 161.555 10.3266C161.682 10.3266 161.872 10.3266 161.872 10.1365C161.935 10.0098 161.745 9.88304 161.555 9.88304C161.301 9.94641 160.985 10.0098 160.731 10.0098ZM314.83 15.9659C315.084 16.2194 315.337 16.4095 315.717 16.4095C316.034 16.4095 316.288 16.4095 316.604 16.4095C316.731 16.4095 316.794 16.3461 316.668 16.156C316.097 16.0926 315.464 16.0293 314.83 15.9659C314.703 15.9659 314.64 15.9659 314.513 15.9659C314.45 15.9659 314.387 15.9659 314.387 15.9659L314.323 16.0293C314.387 16.0293 314.513 16.0926 314.577 16.0293C314.64 16.0293 314.767 15.9659 314.83 15.9659ZM313.626 16.7896C313.69 16.9164 313.753 17.0431 313.88 17.1698C314.006 17.2965 314.197 17.4866 314.387 17.4866C315.147 17.6133 315.844 17.7401 316.604 17.6133C316.668 17.6133 316.731 17.4866 316.731 17.3599C316.731 17.2965 316.604 17.1698 316.541 17.1698C316.414 17.1698 316.224 17.1698 316.097 17.1698C315.274 17.2965 314.513 17.1698 313.626 16.7896C313.183 16.7896 312.739 16.853 312.296 16.853C312.169 16.853 312.106 16.853 311.979 16.853C311.915 16.9164 311.852 16.9797 311.852 17.0431C311.915 17.1064 311.979 17.1698 312.106 17.1698C312.612 17.2965 313.119 17.0431 313.626 16.7896ZM241.202 12.9245C241.773 13.368 242.406 13.3047 243.103 13.3047C243.166 13.1779 243.103 13.1146 242.976 13.0512C242.786 12.9245 242.66 12.7977 242.723 12.5443C242.786 12.3542 242.976 12.2275 243.167 12.1641C243.293 12.1008 243.483 12.1008 243.61 12.1008C243.8 12.1008 243.99 12.1008 244.244 12.1008C244.497 12.1008 244.624 11.9107 244.497 11.8473C244.434 11.7839 244.307 11.7206 244.244 11.7206C243.547 11.8473 242.85 11.8473 242.153 11.8473C241.836 11.8473 241.773 11.974 241.899 12.2908C242.026 12.6077 241.963 12.7977 241.646 12.8611C241.519 12.9245 241.329 12.9245 241.202 12.9245C241.139 12.9245 241.139 12.9245 241.076 12.9245C241.139 12.9245 241.202 12.9245 241.202 12.9245ZM309.698 16.4094C309.254 16.5362 308.874 16.6629 308.431 16.853L308.431 16.9797C308.937 17.2332 309.444 17.2965 310.015 17.2332C310.078 17.2332 310.078 17.1698 310.141 17.1064C310.141 17.0431 310.205 16.9797 310.141 16.9797C309.951 16.7263 309.825 16.5362 309.698 16.4094C310.268 16.0926 310.902 16.0293 311.599 16.0926C311.915 16.0926 312.169 16.156 312.486 16.156C312.549 16.156 312.612 16.0293 312.676 15.9659C312.676 15.9659 312.612 15.9025 312.612 15.8392C312.232 15.6491 311.915 15.459 311.535 15.2689C310.838 15.5857 310.078 15.5224 309.318 15.5224C309.001 15.5224 308.747 15.459 308.431 15.459C308.367 15.459 308.24 15.5224 308.177 15.5857C308.177 15.5857 308.114 15.6491 308.114 15.7125C308.114 15.7758 308.177 15.8392 308.177 15.8392C308.431 15.9025 308.684 15.9025 308.937 15.9025C309.191 15.8392 309.508 16.0293 309.698 16.4094ZM319.076 16.5362C319.076 16.7263 319.012 16.9164 319.012 17.1064C318.949 17.2965 318.885 17.4866 318.632 17.55C318.505 17.6134 318.315 17.6767 318.442 17.8668C319.646 18.1836 320.913 18.3103 322.18 18.1836C322.307 18.1836 322.37 18.0569 322.37 17.9935C322.37 17.9302 322.244 17.8034 322.18 17.8034C322.054 17.7401 321.863 17.7401 321.737 17.7401C321.293 17.8668 320.85 17.7401 320.406 17.55C320.153 17.4233 320.026 17.2332 319.963 16.9797C319.899 16.5995 319.709 16.4728 319.329 16.4728C319.266 16.5362 319.139 16.5362 319.076 16.5362ZM67.5239 11.2137C66.3834 11.7206 66.1933 11.7839 65.1795 11.8473C64.1657 11.8473 63.1519 11.9107 62.1381 11.9107C61.1876 11.9107 60.2372 11.9107 59.2867 11.9107C59.2234 11.9107 59.16 11.974 59.16 11.974C59.0966 12.0374 59.16 12.1641 59.2867 12.1641C59.9837 12.1641 60.6807 12.1007 61.3777 12.1641C63.0885 12.1641 64.7993 12.2275 66.5101 12.1641C67.0171 12.1641 67.524 12.1007 68.0309 12.1641C69.4248 12.2908 70.8822 12.1641 72.2762 12.1007C72.7831 12.1007 73.29 11.974 73.7335 11.8473C73.7335 11.8473 73.7969 11.7839 73.7969 11.7206C73.7969 11.6572 73.7335 11.6572 73.7335 11.5938C73.0365 11.5305 72.3395 11.4671 71.6425 11.4038C70.9456 11.4038 70.2486 11.5305 69.5516 11.4038C68.8546 11.5938 68.1576 11.4671 67.5239 11.2137ZM52.7603 11.8473C51.6198 11.8473 50.4159 11.8473 49.2754 11.8473C49.1487 11.8473 48.9585 11.9107 48.8318 11.9107C48.8318 11.9107 48.7685 11.974 48.7685 12.0374C48.7685 12.1007 48.7685 12.1641 48.8318 12.1641C49.0219 12.2275 49.212 12.2908 49.4021 12.2908C50.7961 12.2908 52.1267 12.3542 53.5207 12.3542C54.4078 12.3542 55.3582 12.2908 56.2453 12.2908C56.372 12.2908 56.4987 12.2275 56.6255 12.1641C56.6255 12.1641 56.6888 12.0374 56.6255 12.0374C56.4987 11.974 56.372 11.8473 56.2453 11.8473C55.1048 11.8473 53.9009 11.8473 52.7603 11.8473ZM58.8432 10.9602C59.9204 10.8968 60.8075 11.0869 61.6945 11.0236C62.2014 11.0236 62.7083 11.0236 63.2152 11.0236C64.6093 11.0236 66.0666 10.9602 67.4606 10.9602C67.6507 10.9602 67.7774 10.7701 67.714 10.7068C67.6507 10.6434 67.5873 10.5167 67.5239 10.5167C66.8269 10.3899 66.1299 10.3266 65.433 10.3899C64.6093 10.5167 63.7222 10.6434 62.8984 10.4533C62.7717 10.4533 62.7083 10.4533 62.5816 10.4533C61.7579 10.6434 60.8708 10.58 59.9837 10.58C59.6669 10.58 59.2867 10.58 58.8432 10.9602ZM325.919 20.4647C326.236 20.4647 326.616 20.5281 326.933 20.5281C328.2 20.6548 329.467 20.7815 330.671 21.1617C331.368 21.4151 332.065 21.3518 332.762 21.0983C332.825 21.0983 332.889 21.035 332.825 20.9716C332.825 20.9082 332.825 20.7815 332.762 20.7181C332.382 20.5281 331.875 20.4647 331.431 20.4013C329.847 20.338 328.2 20.2112 326.616 20.1479C326.426 20.1479 326.236 20.1479 326.045 20.2112C325.919 20.2746 325.855 20.338 325.919 20.4647ZM77.5353 10.5167C78.1056 10.58 78.4224 10.6434 78.7392 10.6434C80.5134 10.6434 82.2875 10.58 83.9984 10.58C84.1884 10.58 84.3785 10.58 84.5686 10.5167C84.632 10.5167 84.7587 10.4533 84.8221 10.3899C84.8221 10.3899 84.8854 10.2632 84.8221 10.2632C84.6953 10.1999 84.5686 10.0731 84.4419 10.0731C82.9212 10.1999 81.4638 9.9464 79.9431 10.1365C79.1827 10.0731 78.4858 10.1999 77.5353 10.5167ZM87.1031 10.2632C87.61 10.4533 88.117 10.4533 88.6239 10.3899C90.2079 10.3266 91.8554 10.2632 93.4395 10.1999C93.5662 10.1999 93.7563 10.1365 93.883 10.1365C94.0097 10.1365 94.0731 10.0098 94.0097 9.9464C94.0097 9.88304 93.9463 9.88304 93.883 9.88304C92.8058 9.88304 91.792 9.9464 90.7148 9.75631C90.398 9.69295 90.0179 9.69295 89.6377 9.69295C88.7506 9.69295 88.307 9.75631 87.1031 10.2632ZM286.824 14.8887C286.57 14.8887 286.317 14.8887 286.063 14.8887C286 14.8887 285.873 15.0155 285.873 15.0788C285.873 15.1422 285.937 15.2689 286 15.2689C286.824 15.5224 287.647 15.5857 288.534 15.5224C288.915 15.5224 289.231 15.459 289.612 15.459C290.309 15.5224 291.006 15.5857 291.703 15.6491C292.083 15.6491 292.526 15.6491 292.907 15.6491C292.97 15.6491 293.033 15.5857 293.033 15.5857C293.033 15.5224 292.97 15.3956 292.907 15.3323C292.653 15.1422 292.336 15.1422 292.019 15.1422C291.259 15.1422 290.499 15.0788 289.738 15.1422C288.978 15.2056 288.281 14.8887 287.521 14.8254C287.331 14.8887 287.077 14.8887 286.824 14.8887ZM302.221 16.0926C302.031 16.0926 301.904 16.0926 301.714 16.156C301.651 16.156 301.587 16.2194 301.461 16.2827C301.524 16.3461 301.587 16.4095 301.714 16.4728C301.904 16.5362 302.094 16.5995 302.284 16.5995C303.552 16.7263 304.819 16.7896 306.086 16.853C306.149 16.853 306.213 16.853 306.213 16.7896C306.276 16.7896 306.276 16.7263 306.276 16.6629C306.276 16.5995 306.276 16.5362 306.213 16.5362C305.643 16.4728 305.009 16.3461 304.439 16.2827C303.742 16.2194 302.981 16.156 302.221 16.0926ZM227.452 9.37614C227.072 9.37614 226.629 9.4395 226.249 9.4395C226.185 9.4395 226.058 9.56623 226.058 9.62959C226.058 9.69296 226.122 9.88305 226.185 9.88305C227.072 10.0731 227.959 10.1365 228.846 10.0098C228.91 10.0098 229.037 9.88305 229.037 9.81968C229.037 9.75632 228.973 9.62959 228.91 9.56623C228.466 9.37614 227.959 9.37614 227.452 9.37614ZM331.812 22.5557C331.938 22.5557 332.002 22.5557 332.065 22.5557C332.128 22.4923 332.192 22.4289 332.255 22.3656C332.192 22.3022 332.128 22.1755 332.065 22.1755C331.495 22.1121 330.861 21.9854 330.291 21.922C329.784 21.922 329.277 21.8587 328.833 21.732C328.453 21.6686 328.073 21.6686 327.63 21.6052C327.63 21.6052 327.566 21.6686 327.566 21.732C327.566 21.7953 327.63 21.8587 327.63 21.8587C327.756 21.922 327.946 21.922 328.073 21.9854C329.024 22.0488 329.974 22.1755 330.861 22.4289C331.178 22.4923 331.558 22.4923 331.812 22.5557ZM223.587 12.9245L223.651 12.9878C224.855 13.0512 226.058 13.1146 227.262 13.1146C227.959 13.1146 228.656 13.0512 229.48 12.9878C227.072 12.6077 226.819 12.7344 223.587 12.9245ZM72.8465 10.5167C71.7059 10.1365 70.6921 10.3266 69.6783 10.58C69.6149 10.58 69.6149 10.6434 69.6149 10.7068C69.6149 10.7701 69.6149 10.8335 69.6783 10.8335C69.8684 10.8968 70.0585 10.9602 70.2486 10.9602C71.1357 10.9602 71.9594 10.7701 72.8465 10.5167ZM150.846 12.5443C150.593 12.4176 150.34 12.2908 150.023 12.1641C149.769 12.0374 149.516 12.1008 149.326 12.2275C149.136 12.3542 149.072 12.6077 149.199 12.7344C149.389 12.9245 149.516 13.1146 149.452 13.368C149.452 13.5581 149.769 13.6848 149.896 13.6215C150.213 13.368 150.466 13.1146 150.783 12.8611C150.783 12.7344 150.783 12.671 150.846 12.5443ZM304.312 15.5224C304.249 15.5224 304.502 15.5224 304.755 15.459C304.819 15.459 304.946 15.3323 304.946 15.2689C304.946 15.2056 304.946 15.0788 304.882 15.0155C304.692 14.8254 304.439 14.6353 304.249 14.762C303.615 14.9521 302.981 14.8887 302.348 15.0155C302.284 15.0155 302.284 15.0788 302.284 15.1422C302.284 15.2056 302.348 15.2689 302.348 15.2689C302.791 15.5224 303.361 15.5224 304.312 15.5224ZM305.896 18.6272C306.213 18.5638 306.53 18.5638 306.783 18.5004C306.846 18.5004 306.846 18.4371 306.846 18.3737C306.846 18.3103 306.783 18.1203 306.72 18.1203C306.086 18.0569 305.452 17.9302 304.819 17.8668C304.565 17.8668 304.312 17.9302 304.058 17.9302C303.932 17.9302 303.868 17.9935 303.868 18.1203C303.868 18.1836 303.995 18.3103 304.058 18.3103C304.755 18.5004 305.326 18.5638 305.896 18.6272ZM180.247 12.2908C180.5 12.2908 180.754 12.2275 181.007 12.1641C181.071 12.1641 181.197 12.0374 181.197 11.974C181.261 11.8473 181.197 11.6572 181.134 11.5305C180.754 11.0236 179.803 11.277 179.677 11.9107C179.677 11.974 179.74 12.1008 179.803 12.1641C179.993 12.2275 180.12 12.2275 180.247 12.2908ZM292.716 14.2551C293.033 14.3185 293.287 14.1284 293.287 13.9383C293.287 13.7482 293.287 13.5581 293.223 13.368C293.033 13.0512 292.59 12.9878 292.336 13.1779C292.146 13.3047 292.146 13.7482 292.4 14.0017C292.463 14.1284 292.653 14.1917 292.716 14.2551ZM157.626 13.6848C157.816 13.6848 158.197 13.6215 158.513 13.5581C158.577 13.5581 158.703 13.4947 158.767 13.4314C158.767 13.4314 158.767 13.368 158.767 13.3047C158.767 13.2413 158.703 13.2413 158.64 13.1779C158.197 13.0512 157.753 12.9878 157.309 13.1779C157.183 13.2413 157.056 13.368 156.993 13.4314C156.929 13.4947 157.119 13.6848 157.309 13.6848C157.373 13.6848 157.436 13.6848 157.626 13.6848ZM48.1348 10.58C47.8814 10.6434 47.6279 10.6434 47.3745 10.6434C47.2477 10.6434 47.1844 10.7068 47.1844 10.8335C47.1844 10.8968 47.2477 10.8968 47.3111 10.8968C47.7546 10.9602 48.1982 11.0236 48.6417 11.0869C48.7685 11.0869 48.9586 11.0869 49.0853 11.0236C49.1487 11.0236 49.212 10.8968 49.3387 10.8335C49.2754 10.7701 49.212 10.6434 49.1486 10.6434C48.8318 10.6434 48.515 10.6434 48.1348 10.58ZM166.054 11.2137C166.244 11.2137 166.37 11.2137 166.434 11.1503C166.497 11.0869 166.561 11.0236 166.561 10.8969L166.497 10.7701C166.18 10.58 165.673 10.6434 165.42 10.8969L165.42 11.0236C165.61 11.1503 165.863 11.1503 166.054 11.2137ZM238.351 13.2413C238.541 13.1779 238.604 13.1779 238.731 13.1779C238.794 13.1146 238.858 13.0512 238.858 12.9245C238.858 12.9245 238.794 12.8611 238.794 12.7978C238.478 12.671 238.161 12.671 237.781 12.7344C237.654 12.7344 237.591 12.8611 237.654 12.9245C237.654 12.9878 237.717 12.9878 237.717 13.0512C237.971 13.1779 238.161 13.1779 238.351 13.2413ZM197.989 11.7839C197.925 11.7206 197.925 11.6572 197.925 11.6572C197.418 11.5305 196.848 11.5305 196.278 11.5938C196.151 11.5938 196.088 11.6572 196.151 11.7839C196.151 11.8473 196.214 11.8473 196.278 11.8473C196.848 12.0374 197.418 11.974 197.989 11.7839ZM141.849 13.6215C141.659 13.6215 141.469 13.6848 141.342 13.6848C141.279 13.6848 141.215 13.7482 141.215 13.7482C141.152 13.8116 141.152 13.9383 141.279 14.0016C141.405 14.065 141.532 14.1917 141.659 14.2551C141.912 14.3818 142.229 14.3185 142.419 14.0016C142.483 13.9383 142.419 13.7482 142.356 13.7482C142.166 13.6848 141.976 13.6848 141.849 13.6215ZM178.346 13.4947C178.663 13.4947 178.853 13.3047 178.916 13.0512C178.916 12.9878 178.853 12.8611 178.79 12.7977C178.536 12.671 178.283 12.7344 178.093 12.8611C177.966 12.9245 177.966 13.1779 178.029 13.2413C178.156 13.368 178.283 13.4314 178.346 13.4947ZM220.356 11.7206C220.292 11.6572 220.229 11.4671 220.229 11.4671C219.912 11.4671 219.659 11.5305 219.342 11.5305C219.279 11.5305 219.279 11.5938 219.279 11.6572C219.279 11.7206 219.279 11.7839 219.279 11.7839C219.595 12.1008 219.849 12.1008 220.229 11.9107C220.229 11.9107 220.292 11.7839 220.356 11.7206ZM258.437 10.7068C258.69 10.6434 258.881 10.6434 259.071 10.58C259.197 10.58 259.261 10.4533 259.197 10.3266C259.197 10.2632 259.134 10.2632 259.071 10.1999C258.69 10.0731 258.31 10.0731 257.93 10.3266L257.93 10.4533C258.12 10.58 258.31 10.6434 258.437 10.7068ZM201.854 12.9245C202.487 12.9878 202.804 13.0512 203.121 13.1146C203.184 13.1146 203.248 13.0512 203.248 13.0512C203.248 12.9245 203.184 12.8611 203.121 12.8611C202.741 12.7977 202.361 12.7344 201.854 12.9245ZM256.219 13.7482C256.473 13.7482 256.599 13.7482 256.663 13.7482C256.726 13.7482 256.853 13.6215 256.916 13.5581C256.98 13.4947 256.79 13.3047 256.599 13.3047C256.283 13.3047 256.029 13.368 255.712 13.368C255.649 13.368 255.586 13.4314 255.586 13.4314C255.649 13.4947 255.649 13.6215 255.776 13.6215C255.966 13.7482 256.156 13.7482 256.219 13.7482ZM207.493 10.4533C207.493 10.5167 207.493 10.5167 207.43 10.58C207.62 10.58 207.81 10.6434 208 10.58C208.19 10.58 208.38 10.6434 208.507 10.4533C208.19 10.4533 207.81 10.4533 207.493 10.4533ZM108.393 14.1284C108.393 14.065 108.393 14.0016 108.33 14.0016C108.14 13.8116 107.886 13.8116 107.696 14.0016C107.633 14.065 107.633 14.1917 107.633 14.2551C107.823 14.5719 108.203 14.5719 108.33 14.2551C108.393 14.2551 108.393 14.1917 108.393 14.1284ZM239.365 11.7206C239.365 11.5305 239.301 11.3404 239.175 11.4038C239.111 11.4038 238.985 11.4671 238.921 11.5305C238.858 11.5939 238.794 11.7206 238.794 11.7839C238.731 11.9107 238.858 12.1008 238.985 12.1008C239.238 12.0374 239.365 11.974 239.365 11.7206ZM209.774 11.6572C209.711 11.5938 209.647 11.4671 209.584 11.4671C209.394 11.4671 209.204 11.5305 209.014 11.5305C208.95 11.5305 208.887 11.5938 208.887 11.5938C208.887 11.6572 208.95 11.7839 208.95 11.8473C209.141 12.0374 209.394 12.0374 209.584 11.8473C209.711 11.8473 209.711 11.7206 209.774 11.6572ZM57.1957 10.7701C56.7522 10.7068 56.7522 10.7068 56.372 10.8335C56.6255 10.8335 56.8789 10.9602 57.1957 10.7701ZM173.657 13.1779C173.657 13.1146 173.657 13.0512 173.594 12.9878C173.467 12.8611 173.34 12.7977 173.214 12.9245C173.15 12.9878 173.087 13.0512 173.087 13.1779C173.087 13.2413 173.214 13.368 173.277 13.368C173.404 13.3047 173.53 13.2413 173.657 13.1779ZM292.653 17.6133C292.716 17.6133 292.78 17.55 292.78 17.55C292.78 17.4866 292.78 17.4233 292.78 17.4233C292.59 17.3599 292.463 17.2332 292.273 17.1698C292.21 17.1698 292.146 17.1698 292.146 17.1698C292.146 17.2332 292.146 17.3599 292.146 17.4233C292.273 17.6133 292.463 17.6767 292.653 17.6133ZM211.548 12.9245C211.802 12.9245 211.928 12.8611 211.928 12.7344C211.928 12.6077 211.865 12.5443 211.738 12.5443C211.612 12.5443 211.485 12.6077 211.422 12.7344C211.422 12.8611 211.485 12.9245 211.548 12.9245ZM190.005 11.7206C189.941 11.6572 189.815 11.5305 189.751 11.4671C189.625 11.4038 189.498 11.5305 189.371 11.6572C189.308 11.7839 189.371 11.974 189.498 12.0374C189.751 12.1008 189.941 11.974 190.005 11.7206ZM124.931 14.0016C124.994 14.0016 125.058 14.0016 125.058 14.0016C125.248 13.9383 125.374 13.7482 125.438 13.5581C125.438 13.4947 125.374 13.368 125.311 13.3047L125.184 13.3047C124.931 13.4314 124.804 13.5581 124.868 13.8749C124.868 13.8749 124.931 13.9383 124.931 14.0016ZM186.71 16.0926C186.71 15.9659 186.647 15.9025 186.52 15.9025C186.393 15.9025 186.33 15.9659 186.33 16.0926C186.33 16.2194 186.393 16.2827 186.52 16.2827C186.647 16.2827 186.71 16.2194 186.71 16.0926ZM325.158 21.6052C325.222 21.6052 325.348 21.6052 325.412 21.6052C325.475 21.6052 325.539 21.4785 325.539 21.4151L325.475 21.3518C325.285 21.3518 325.095 21.2884 324.905 21.3518C324.842 21.3518 324.778 21.4785 324.715 21.5419C324.778 21.5419 324.778 21.6052 324.842 21.6052C324.968 21.6052 325.032 21.6052 325.158 21.6052ZM264.14 10.4533C264.013 10.4533 263.823 10.6434 263.886 10.7068C263.95 10.7701 264.013 10.8335 264.14 10.8335C264.203 10.8335 264.266 10.8335 264.266 10.8335C264.33 10.7701 264.457 10.7068 264.457 10.6434C264.457 10.58 264.393 10.5167 264.266 10.4533C264.266 10.4533 264.203 10.4533 264.14 10.4533ZM216.744 11.8473C216.871 11.8473 216.934 11.8473 216.934 11.8473C217.061 11.8473 217.124 11.7839 217.061 11.7206C217.061 11.7206 216.998 11.6572 216.934 11.6572C216.871 11.6572 216.807 11.6572 216.807 11.6572C216.681 11.6572 216.554 11.7206 216.427 11.7839C216.554 11.7206 216.681 11.7839 216.744 11.8473ZM200.333 10.6434C200.333 10.58 200.333 10.5167 200.333 10.4533C200.206 10.4533 200.08 10.3899 199.953 10.3899C199.889 10.3899 199.826 10.4533 199.826 10.4533C199.889 10.5167 199.889 10.6434 199.953 10.6434C200.08 10.7068 200.206 10.6434 200.333 10.6434ZM272.377 14.3818C272.44 14.3818 272.567 14.4452 272.694 14.4452C272.82 14.4452 272.947 14.2551 272.947 14.1284C272.884 14.0017 272.694 13.9383 272.567 14.0017C272.377 14.065 272.25 14.1917 272.377 14.3818ZM294.11 14.8254C294.237 14.8254 294.427 14.8254 294.491 14.762C294.554 14.762 294.554 14.6353 294.617 14.5086C294.554 14.4452 294.427 14.3818 294.364 14.3818C294.301 14.3818 294.174 14.4452 294.11 14.5086C294.047 14.5719 294.11 14.6986 294.11 14.8254ZM299.053 16.0293C299.053 15.9659 299.053 15.9025 298.989 15.9025C298.799 15.7758 298.609 15.7758 298.419 15.9025C298.419 15.9025 298.356 16.0293 298.419 16.0293C298.482 16.156 298.673 16.2194 298.799 16.156C298.926 16.156 298.989 16.0293 299.053 16.0293ZM127.529 13.5581C127.529 13.4947 127.465 13.4314 127.465 13.4314C127.339 13.4314 127.212 13.4314 127.022 13.4314C126.959 13.4314 126.895 13.4947 126.895 13.4947C126.959 13.5581 126.959 13.6848 127.022 13.6848C127.339 13.7482 127.592 13.6848 127.529 13.5581ZM112.385 12.0374C112.448 11.974 112.575 11.9107 112.575 11.8473C112.638 11.7206 112.448 11.5938 112.322 11.5938C112.258 11.5938 112.132 11.7206 112.132 11.7839C112.068 11.974 112.195 12.1008 112.385 12.0374ZM140.011 12.9878C140.075 12.9878 140.075 13.0512 140.138 13.0512C140.265 13.0512 140.328 13.0512 140.455 12.9878C140.518 12.9878 140.518 12.9245 140.518 12.8611C140.518 12.7344 140.328 12.671 140.138 12.7344C140.011 12.7977 139.948 12.8611 140.011 12.9878ZM279.537 14.8254C279.664 14.8254 279.727 14.8254 279.727 14.6986C279.727 14.6353 279.664 14.6353 279.6 14.6353C279.537 14.6353 279.41 14.6353 279.347 14.6986C279.283 14.762 279.41 14.8254 279.537 14.8254ZM118.405 14.5719C118.531 14.5719 118.595 14.5085 118.595 14.3818C118.531 14.3185 118.468 14.2551 118.341 14.2551C118.278 14.2551 118.151 14.3185 118.088 14.3818C118.088 14.3818 118.088 14.5085 118.151 14.5085C118.214 14.5719 118.278 14.5719 118.405 14.5719ZM259.958 13.8749C259.958 13.8116 260.021 13.7482 260.021 13.6215C260.021 13.6215 259.958 13.5581 259.894 13.5581C259.831 13.6215 259.768 13.6848 259.768 13.7482C259.768 13.8749 259.831 13.9383 259.958 13.8749ZM207.303 12.9878C207.366 12.9878 207.43 12.9245 207.556 12.9245C207.493 12.8611 207.493 12.7977 207.493 12.7977C207.43 12.7977 207.303 12.8611 207.24 12.8611C207.24 12.9245 207.24 12.9245 207.303 12.9878ZM182.338 13.0512C182.401 13.0512 182.465 12.9878 182.465 12.9878C182.528 12.8611 182.401 12.7977 182.275 12.8611C182.211 12.8611 182.148 12.9245 182.084 12.9878C182.148 12.9878 182.148 13.0512 182.211 13.0512C182.211 13.0512 182.275 13.0512 182.338 13.0512ZM321.737 21.225C321.8 21.225 321.863 21.225 321.863 21.225C321.927 21.225 321.927 21.1617 321.927 21.1617C321.863 21.1617 321.8 21.0983 321.673 21.0983L321.61 21.1617C321.673 21.1617 321.737 21.1617 321.737 21.225ZM265.66 11.5939C265.66 11.6572 265.66 11.7206 265.724 11.7206C265.851 11.7839 265.914 11.7206 265.914 11.6572C265.914 11.5939 265.914 11.5305 265.851 11.5305C265.787 11.4038 265.724 11.4671 265.66 11.5939ZM283.022 14.8254C283.022 14.762 283.022 14.6986 283.022 14.6986C282.959 14.6986 282.832 14.6986 282.768 14.6986C282.768 14.762 282.768 14.8254 282.832 14.8254C282.895 14.9521 282.959 14.9521 283.022 14.8254ZM272.44 13.3047C272.504 13.3047 272.63 13.2413 272.694 13.2413C272.694 13.1779 272.63 13.0512 272.63 13.0512C272.567 13.0512 272.44 13.0512 272.44 13.1146C272.25 13.1779 272.314 13.2413 272.44 13.3047ZM270.476 14.1917C270.539 14.1917 270.603 14.1284 270.729 14.1284C270.729 14.065 270.729 14.0017 270.666 14.0017C270.603 14.0017 270.539 14.0017 270.413 14.065C270.476 14.1284 270.476 14.1917 270.476 14.1917ZM141.469 18.8172L141.405 18.7539L141.342 18.8806L141.469 18.8172ZM268.702 14.1917C268.765 14.1917 268.765 14.1284 268.829 14.1284C268.829 14.065 268.765 14.065 268.765 14.065C268.638 14.0017 268.575 14.065 268.638 14.1917C268.575 14.1917 268.638 14.1917 268.702 14.1917ZM265.787 10.8969C265.914 10.8969 265.977 10.8335 265.977 10.7701C265.977 10.7068 265.914 10.6434 265.914 10.6434C265.85 10.6434 265.787 10.7068 265.66 10.7068C265.724 10.7701 265.787 10.8335 265.787 10.8969ZM149.769 11.4671C149.833 11.4671 149.833 11.4038 149.896 11.4038C149.896 11.3404 149.833 11.3404 149.833 11.277C149.706 11.2137 149.643 11.277 149.706 11.4038C149.643 11.4671 149.706 11.4671 149.769 11.4671ZM151.987 12.7344C151.924 12.8611 151.987 12.9245 152.114 12.8611L152.114 12.7344C152.05 12.7344 151.987 12.7344 151.987 12.7344ZM133.865 13.4314L133.865 13.5581L133.992 13.4947L133.865 13.4314ZM225.108 11.7206L225.171 11.7839C225.298 11.7839 225.361 11.7206 225.298 11.6572C225.298 11.6572 225.235 11.6572 225.171 11.6572C225.171 11.6572 225.108 11.6572 225.108 11.7206ZM246.208 13.2413C246.271 13.2413 246.271 13.2413 246.335 13.1779L246.271 13.1146C246.271 13.1146 246.208 13.1146 246.145 13.1779C246.145 13.2413 246.145 13.2413 246.208 13.2413ZM184.302 12.9878C184.429 12.9878 184.556 13.0512 184.556 12.7977C184.556 12.7977 184.429 12.7977 184.302 12.7977L184.239 12.8611C184.239 12.9878 184.302 12.9878 184.302 12.9878ZM311.979 18.8172L312.042 18.8806L312.106 18.8172L312.042 18.7539C312.042 18.7539 311.979 18.7539 311.979 18.8172ZM318.569 16.0293C318.632 16.0293 318.632 15.9659 318.695 15.9659L318.632 15.9025C318.632 15.9025 318.569 15.9025 318.505 15.9659C318.505 15.9659 318.505 15.9659 318.569 16.0293ZM305.706 19.7043C305.769 19.7043 305.769 19.641 305.833 19.641C305.833 19.5776 305.769 19.5776 305.769 19.5142C305.643 19.4509 305.579 19.5142 305.643 19.641C305.579 19.7043 305.643 19.7043 305.706 19.7043ZM96.8611 12.4176L96.9878 12.4176C97.0511 12.2908 96.9878 12.2908 96.8611 12.2908C96.7977 12.2908 96.7977 12.3542 96.7343 12.3542C96.7343 12.3542 96.7977 12.3542 96.8611 12.4176ZM75.7611 10.5167C75.7611 10.4533 75.6978 10.3899 75.6978 10.3899C75.6344 10.3899 75.5077 10.3899 75.4443 10.4533C75.4443 10.5167 75.5077 10.58 75.5077 10.58C75.571 10.58 75.6344 10.5167 75.7611 10.5167ZM155.725 11.2137C155.789 11.2137 155.789 11.277 155.852 11.2137L155.915 11.1503C155.915 11.0236 155.789 11.0236 155.725 11.0869C155.662 11.0869 155.725 11.1503 155.725 11.2137ZM314.894 15.0155C314.83 14.9521 314.83 14.9521 314.767 14.9521C314.703 14.9521 314.703 15.0155 314.64 15.0155C314.703 15.0788 314.703 15.0788 314.767 15.0788C314.767 15.0788 314.83 15.0788 314.894 15.0155ZM163.329 9.81968C163.266 9.81968 163.266 9.75632 163.202 9.81968C163.076 9.88304 163.076 9.9464 163.202 9.9464C163.202 9.9464 163.266 9.9464 163.329 9.9464C163.329 9.88304 163.329 9.88304 163.329 9.81968ZM248.045 11.0236C247.982 11.0236 247.982 10.9602 247.919 10.9602C247.792 11.0236 247.792 11.0869 247.919 11.1503L248.045 11.1503C248.045 11.1503 248.045 11.0869 248.045 11.0236ZM319.139 20.8449L319.076 20.7815L319.076 20.8449L319.139 20.8449ZM181.894 10.8335L181.894 10.7068L181.768 10.7701L181.894 10.8335ZM319.899 19.9578L320.026 19.8944L319.963 19.8311L319.899 19.9578ZM170.552 16.5362L170.616 16.5995L170.616 16.5362L170.552 16.5362ZM252.354 13.368C252.418 13.368 252.418 13.368 252.481 13.3047C252.481 13.2413 252.481 13.1779 252.418 13.1779C252.418 13.1779 252.354 13.1779 252.291 13.2413C252.291 13.3047 252.291 13.3047 252.354 13.368ZM230.05 11.7206L229.987 11.6572L229.924 11.7206L229.987 11.7839C229.987 11.7839 229.987 11.7206 230.05 11.7206ZM249.186 11.7206L249.123 11.6572C249.123 11.6572 249.059 11.6572 248.996 11.7206L249.059 11.7839C249.123 11.7206 249.186 11.7206 249.186 11.7206ZM194.694 12.9878L194.694 12.8611L194.567 12.9245L194.694 12.9878ZM274.531 16.2827C274.658 16.3461 274.721 16.2827 274.658 16.156C274.658 16.156 274.595 16.156 274.531 16.156C274.531 16.2194 274.531 16.2827 274.531 16.2827ZM285.24 13.8749L285.366 13.8116L285.303 13.7482L285.24 13.8749ZM147.235 11.4671C147.298 11.4671 147.298 11.4038 147.361 11.4038L147.298 11.3404C147.298 11.3404 147.235 11.4038 147.171 11.4038C147.171 11.4038 147.171 11.4671 147.235 11.4671ZM147.678 13.5581C147.678 13.4947 147.615 13.4314 147.615 13.4314C147.552 13.4314 147.488 13.4947 147.361 13.4947C147.361 13.5581 147.425 13.6215 147.425 13.6215C147.488 13.6215 147.552 13.5581 147.678 13.5581ZM336.31 22.6824L336.374 22.7458L336.437 22.6824L336.374 22.619C336.374 22.619 336.374 22.619 336.31 22.6824ZM305.579 14.1917C305.706 14.2551 305.769 14.1917 305.706 14.065C305.706 14.065 305.643 14.065 305.579 14.065C305.516 14.065 305.579 14.1284 305.579 14.1917ZM151.734 11.4671C151.797 11.4671 151.86 11.4671 151.86 11.4038C151.86 11.277 151.86 11.277 151.734 11.277L151.67 11.3404C151.67 11.4038 151.734 11.4671 151.734 11.4671ZM204.768 15.9659L204.705 15.9025C204.705 15.9025 204.642 15.9659 204.578 15.9659L204.642 16.0293C204.705 16.0293 204.768 16.0293 204.768 15.9659ZM139.504 11.5938C139.504 11.6572 139.504 11.6572 139.504 11.7206C139.568 11.7206 139.568 11.7206 139.631 11.7206C139.631 11.6572 139.631 11.5938 139.631 11.5938C139.631 11.5938 139.568 11.5938 139.504 11.5938ZM226.375 11.5305C226.439 11.5305 226.502 11.5305 226.502 11.4671C226.502 11.4671 226.502 11.4038 226.439 11.3404C226.375 11.3404 226.312 11.3404 226.312 11.4038C226.375 11.4671 226.375 11.5305 226.375 11.5305ZM216.427 10.5167L216.427 10.3899L216.301 10.4533L216.427 10.5167ZM91.3485 12.671L91.3485 12.5443L91.2217 12.6077L91.3485 12.671ZM118.088 12.3542L118.088 12.2908L117.961 12.2908L118.088 12.3542ZM299.306 13.8749C299.37 13.8749 299.37 13.8749 299.433 13.8116L299.37 13.7482C299.37 13.7482 299.306 13.7482 299.306 13.8116C299.243 13.8116 299.306 13.8749 299.306 13.8749ZM298.166 14.6986L298.166 14.762L298.229 14.6986L298.166 14.6986Z" fill="white"/>
<path d="M143.813 8.04551C144.637 7.91879 145.334 7.91879 146.031 7.7287C146.221 7.66533 146.411 7.66533 146.601 7.66533C147.615 7.7287 148.629 7.60197 149.643 7.47524C149.769 7.47524 149.833 7.47524 149.959 7.47524C150.023 7.47524 150.149 7.53861 150.213 7.60197C150.34 7.79206 150.213 7.85542 150.086 7.91879C150.023 7.98215 149.896 8.04551 149.896 8.10888C149.896 8.29896 150.086 8.29896 150.213 8.36233C150.53 8.42569 150.91 8.48905 151.29 8.42569C152.114 8.29896 152.874 8.36233 153.698 8.36233C153.824 8.36233 153.888 8.36233 154.015 8.42569C154.078 8.48905 154.141 8.55242 154.205 8.67914L154.141 8.80587C153.508 9.05932 152.811 9.24941 152.114 9.05932C151.543 8.9326 151.037 8.9326 150.466 8.9326C149.389 8.9326 148.249 8.86923 147.171 8.86923C147.171 8.86923 147.108 8.74251 147.171 8.74251C147.488 8.55242 147.868 8.74251 148.185 8.61578C148.312 8.55242 148.375 8.48905 148.312 8.42569C148.312 8.36233 148.249 8.36233 148.185 8.36233C147.425 8.29896 146.664 8.29896 145.904 8.29896C145.144 8.10887 144.51 8.10887 143.813 8.04551Z" fill="white"/>
<path d="M128.986 9.4395C127.719 9.4395 126.452 9.4395 125.184 9.4395C124.677 9.4395 124.171 9.50286 123.727 9.75631C123.474 9.88304 123.22 9.88304 122.967 9.81968C122.586 9.75631 122.333 9.56623 122.396 9.4395C122.523 9.24941 122.713 9.18605 122.903 9.18605C123.474 9.18605 124.044 9.12268 124.551 9.18605C125.248 9.24941 125.945 9.24941 126.705 9.18605C127.022 9.18605 127.339 9.12268 127.592 9.18605C128.416 9.24941 129.176 9.18605 130 9.05932C131.077 8.93259 132.091 8.99596 133.168 8.99596C133.295 8.99596 133.358 9.05932 133.485 9.05932C133.548 9.05932 133.548 9.12268 133.612 9.18605C133.675 9.31277 133.612 9.4395 133.548 9.4395C133.231 9.50286 132.851 9.56623 132.471 9.56623C131.584 9.4395 130.634 9.50286 129.747 9.56623C129.493 9.4395 129.24 9.4395 128.986 9.4395Z" fill="white"/>
<path d="M132.534 8.10887C132.471 8.10887 132.471 8.17224 132.408 8.17224C131.838 8.2356 131.204 8.29896 130.634 8.42569C130.507 8.42569 130.444 8.48905 130.317 8.48905C128.986 8.48905 127.719 8.61578 126.388 8.61578C126.135 8.61578 125.881 8.55242 125.691 8.36233C125.691 8.36233 125.628 8.29896 125.691 8.2356C125.691 8.17224 125.755 8.17224 125.755 8.10887C125.818 8.04551 125.818 8.04551 125.881 8.04551C128.036 7.91878 130.19 7.79206 132.408 7.91879C132.471 7.91879 132.471 7.98215 132.534 7.98215C132.471 8.04551 132.471 8.04551 132.534 8.10887Z" fill="white"/>
<path d="M252.291 9.94641C252.164 9.94641 251.847 9.94641 251.594 9.88305C251.53 9.88305 251.467 9.75632 251.467 9.62959C251.467 9.56623 251.594 9.43951 251.657 9.43951C252.164 9.43951 252.671 9.43951 253.115 9.50287C253.178 9.50287 253.241 9.62959 253.241 9.69296C253.241 9.75632 253.115 9.88305 253.051 9.88305C252.798 9.94641 252.608 9.94641 252.291 9.94641Z" fill="white"/>
<path d="M140.392 8.17224C140.201 8.17224 140.011 8.17224 139.821 8.17224C139.758 8.17224 139.695 8.10887 139.631 8.04551C139.631 7.98215 139.695 7.98215 139.695 7.91879C140.265 7.66533 140.898 7.60197 141.595 7.66533C141.659 7.66533 141.722 7.7287 141.722 7.7287C141.722 7.79206 141.659 7.91879 141.595 7.91879C141.215 8.04551 140.835 8.10887 140.392 8.17224Z" fill="white"/>
<path d="M31.9138 10.1999C31.5337 10.3899 31.2169 10.3266 30.9001 10.3266C30.2664 10.2632 29.5695 10.3266 28.9358 10.1365C28.8725 10.1365 28.8724 10.0731 28.8724 10.0098C28.8724 9.9464 28.9358 9.88304 28.9358 9.88304C29.5695 9.9464 30.2031 10.0098 30.9001 9.9464C31.2802 9.9464 31.5337 10.0098 31.9138 10.1999Z" fill="white"/>
<path d="M136.083 7.91879C136.019 7.98215 136.019 8.04551 135.956 8.10887C135.639 8.42569 135.259 8.48905 134.816 8.36233C134.689 8.29896 134.499 8.10887 134.562 8.04551C134.625 7.98215 134.689 7.85542 134.752 7.85542C135.069 7.7287 135.449 7.60197 135.766 7.66533C135.893 7.66533 136.019 7.85542 136.083 7.91879Z" fill="white"/>
<path d="M246.651 9.69296C245.954 9.62959 245.638 9.88305 245.257 9.62959C245.194 9.62959 245.194 9.56623 245.194 9.50287C245.194 9.4395 245.194 9.4395 245.257 9.37614C245.257 9.31278 245.321 9.31278 245.384 9.31278C246.081 9.31278 246.778 9.31278 247.475 9.37614C247.539 9.37614 247.602 9.50287 247.665 9.56623C247.602 9.56623 247.602 9.62959 247.539 9.62959C247.095 9.69296 246.715 9.69296 246.651 9.69296Z" fill="white"/>
<path d="M294.807 11.5305C295.378 11.5305 295.885 11.5305 296.455 11.5305C296.772 11.5305 297.025 11.6572 297.215 11.9107C297.279 11.974 297.215 12.1008 297.152 12.1641C297.089 12.2275 296.962 12.2908 296.898 12.2908C296.328 11.974 295.695 11.974 295.061 11.7206C294.998 11.6572 294.934 11.5939 294.807 11.5305Z" fill="white"/>
<path d="M165.23 7.60197C165.103 7.53861 164.85 7.47524 164.596 7.41188C164.533 7.41188 164.533 7.34852 164.533 7.28516C164.596 7.22179 164.596 7.09507 164.66 7.0317C164.976 6.90498 165.23 6.90498 165.483 7.09507C165.547 7.15843 165.61 7.22179 165.61 7.34852C165.61 7.41188 165.483 7.47524 165.42 7.47524C165.483 7.60197 165.42 7.60197 165.23 7.60197Z" fill="white"/>
<path d="M352.531 24.2031C353.165 24.1398 353.672 24.2665 354.179 24.4566C353.545 24.5833 353.545 24.5833 352.531 24.2031Z" fill="white"/>
<path d="M177.205 7.98215C177.776 7.98215 178.283 7.91879 178.79 7.91879C178.916 7.91879 178.98 7.98215 178.98 8.10888C178.98 8.17224 178.916 8.17224 178.853 8.17224C178.283 8.2356 177.776 8.17224 177.205 7.98215Z" fill="white"/>
<path d="M260.655 8.67915C261.415 8.48906 261.922 8.4257 262.429 8.61579C261.795 8.86924 261.795 8.86924 260.655 8.67915Z" fill="white"/>
<path d="M266.104 8.9326C265.344 9.12269 265.344 9.12269 264.71 8.99596C264.71 8.99596 264.647 8.9326 264.71 8.86924C264.71 8.80587 264.773 8.80587 264.837 8.80587C265.217 8.67915 265.66 8.80587 266.104 8.9326Z" fill="white"/>
<path d="M143.053 9.05932C142.926 9.05932 142.736 8.99596 142.609 8.99596C142.546 8.99596 142.483 8.9326 142.483 8.9326C142.483 8.86923 142.546 8.74251 142.609 8.67914C142.863 8.48905 143.18 8.55242 143.496 8.61578C143.56 8.61578 143.686 8.74251 143.686 8.80587C143.686 8.86923 143.623 8.99596 143.496 8.99596C143.306 9.05932 143.18 9.05932 143.053 9.05932Z" fill="white"/>
<path d="M177.015 6.77825C177.522 6.84161 178.029 6.71489 178.473 7.0317C177.712 7.28516 177.712 7.28516 177.015 6.77825Z" fill="white"/>
<path d="M173.15 8.10888C173.594 7.98215 173.657 7.91879 173.784 7.91879C173.911 7.91879 174.101 7.91879 174.227 7.91879C174.481 7.91879 174.734 7.98215 175.051 8.10888C174.544 8.10888 174.037 8.10888 173.15 8.10888Z" fill="white"/>
<path d="M138.998 9.05932C139.568 8.67914 139.885 8.61578 140.265 8.80587L140.265 8.9326C139.885 9.12268 139.441 8.9326 138.998 9.05932Z" fill="white"/>
<path d="M293.984 11.974C293.287 12.1008 292.716 11.7839 292.019 11.7839C291.956 11.7839 291.893 11.7839 291.893 11.7839L291.893 11.7206C292.59 11.5939 293.287 11.8473 293.984 11.974Z" fill="white"/>
<path d="M231.128 8.2356C230.937 8.2356 230.747 8.10888 230.811 8.04552C230.874 7.98215 230.937 7.85543 231.001 7.85543C231.128 7.79206 231.318 7.79206 231.444 7.79206C231.508 7.79206 231.571 7.79206 231.571 7.85543C231.634 7.85543 231.634 7.91879 231.698 7.98215C231.761 8.10888 231.698 8.17224 231.571 8.2356C231.508 8.2356 231.508 8.29897 231.444 8.29897C231.318 8.23561 231.254 8.2356 231.128 8.2356Z" fill="white"/>
<path d="M158.387 8.36233C158.07 8.55242 157.753 8.61578 157.436 8.61578C157.436 8.61578 157.373 8.55242 157.373 8.48905C157.373 8.42569 157.373 8.36233 157.436 8.36233C157.753 8.29896 158.07 8.2356 158.387 8.36233Z" fill="white"/>
<path d="M225.045 6.77825C225.488 6.71489 225.868 6.65153 226.249 6.77825C226.185 6.84162 226.058 6.90498 225.995 6.90498C225.678 6.90498 225.361 6.96834 225.045 6.77825Z" fill="white"/>
<path d="M289.105 11.7206C289.041 11.6572 288.978 11.6572 288.915 11.5939C288.978 11.5305 289.041 11.4671 289.105 11.4038C289.295 11.3404 289.485 11.5305 289.358 11.5939C289.295 11.7206 289.231 11.7206 289.105 11.7206Z" fill="white"/>
<path d="M274.405 10.4533C274.024 10.58 273.708 10.8335 273.264 10.7068C273.201 10.7068 273.201 10.6434 273.201 10.58C273.201 10.5167 273.201 10.4533 273.264 10.4533C273.644 10.3266 274.024 10.5167 274.405 10.4533Z" fill="white"/>
<path d="M257.36 8.80587C257.233 8.80587 257.17 8.74251 257.17 8.61578C257.17 8.55242 257.233 8.55242 257.296 8.55242C257.36 8.48906 257.487 8.48906 257.55 8.48906C257.613 8.48906 257.74 8.55242 257.803 8.61578C257.74 8.67915 257.677 8.80587 257.613 8.80587C257.55 8.80587 257.423 8.80587 257.36 8.80587Z" fill="white"/>
<path d="M182.718 9.37614C182.655 9.31278 182.591 9.31278 182.528 9.24941C182.591 9.24941 182.591 9.18605 182.655 9.18605C182.718 9.18605 182.845 9.18605 182.908 9.18605C183.035 9.18605 183.098 9.24941 183.035 9.31278C183.035 9.31278 182.972 9.37614 182.908 9.37614C182.908 9.37614 182.845 9.37614 182.718 9.37614Z" fill="white"/>
<path d="M119.989 9.69295C119.925 9.62959 119.799 9.62959 119.735 9.56623C119.672 9.50286 119.799 9.37614 119.989 9.37614C120.052 9.37614 120.115 9.37614 120.115 9.37614C120.179 9.4395 120.242 9.50286 120.305 9.56623C120.242 9.62959 120.179 9.62959 120.052 9.69295C120.052 9.69295 120.052 9.69295 119.989 9.69295Z" fill="white"/>
<path d="M157.309 7.7287C156.993 7.7287 156.866 7.66533 156.993 7.60197C157.056 7.60197 157.183 7.60197 157.246 7.60197C157.309 7.60197 157.373 7.66533 157.436 7.7287C157.436 7.7287 157.373 7.7287 157.309 7.7287Z" fill="white"/>
<path d="M211.992 9.24941C211.928 9.31278 211.802 9.31278 211.738 9.31278C211.612 9.31278 211.548 9.18605 211.612 9.12269C211.675 9.05932 211.802 8.99596 211.865 9.05932C211.928 9.05932 211.928 9.18605 211.992 9.24941Z" fill="white"/>
<path d="M229.987 6.77825C229.797 6.77825 229.734 6.84162 229.67 6.84162C229.607 6.84162 229.543 6.84162 229.48 6.77825C229.543 6.77825 229.543 6.77825 229.607 6.77825C229.734 6.77825 229.797 6.77825 229.987 6.77825Z" fill="white"/>
<path d="M177.015 6.77825C176.825 6.90498 176.572 7.0317 176.382 7.09507C176.318 7.09507 176.255 7.0317 176.192 6.96834L176.255 6.84161C176.508 6.84161 176.762 6.84161 177.015 6.77825Z" fill="white"/>
<path d="M203.881 9.4395C204.008 9.31278 204.071 9.18605 204.198 9.12269C204.262 9.05932 204.388 9.05932 204.452 9.12269C204.515 9.18605 204.578 9.31278 204.578 9.37614C204.578 9.50287 204.515 9.69296 204.515 9.81968L204.578 9.75632C204.325 9.62959 204.135 9.50287 203.881 9.4395Z" fill="white"/>
<path d="M186.963 6.71489C187.027 6.77825 187.09 6.84161 187.154 6.90498C187.09 6.96834 187.027 7.0317 186.963 7.0317C186.773 7.0317 186.647 6.84161 186.71 6.77825C186.773 6.77825 186.837 6.77825 186.963 6.71489Z" fill="white"/>
<path d="M370.336 1.13894C370.21 1.13894 370.146 1.07558 370.146 1.01222C370.146 0.948853 370.336 0.948853 370.4 0.948853C370.463 0.948853 370.526 1.01222 370.526 1.01222C370.526 1.07558 370.463 1.13894 370.336 1.13894Z" fill="white"/>
<path d="M159.844 7.41188C159.844 7.34852 159.844 7.34852 159.907 7.28516C159.971 7.28516 159.971 7.28516 160.034 7.28516C160.034 7.28516 160.097 7.34852 160.097 7.41188C160.034 7.41188 160.034 7.47524 159.971 7.47524C159.971 7.47524 159.907 7.47524 159.844 7.41188Z" fill="white"/>
<path d="M326.045 15.8392C326.109 15.8392 326.172 15.7758 326.299 15.7758C326.299 15.7758 326.362 15.8392 326.362 15.9025C326.299 15.9025 326.236 15.9659 326.109 15.9659C326.045 15.9659 326.045 15.9025 326.045 15.8392Z" fill="white"/>
<path d="M262.112 7.85543C262.049 7.85543 261.985 7.85543 261.985 7.79206C261.985 7.66534 262.049 7.66534 262.175 7.66534L262.239 7.7287C262.239 7.79206 262.175 7.79206 262.112 7.85543Z" fill="white"/>
<path d="M187.154 8.10888L187.09 8.04551C187.154 7.98215 187.217 7.98215 187.28 8.10888C187.28 8.04551 187.217 8.10888 187.154 8.10888Z" fill="white"/>
<path d="M189.435 7.15843C189.435 7.09507 189.371 7.09507 189.371 7.0317C189.371 6.96834 189.435 6.96834 189.498 6.96834C189.625 6.96834 189.625 7.09507 189.561 7.15843C189.498 7.15843 189.435 7.15843 189.435 7.15843Z" fill="white"/>
<path d="M192.223 7.15843C192.159 7.15843 192.159 7.22179 192.096 7.22179C192.032 7.22179 192.032 7.15843 191.969 7.15843C192.032 7.15843 192.032 7.09507 192.096 7.09507C192.159 7.0317 192.159 7.09507 192.223 7.15843Z" fill="white"/>
<path d="M356.523 24.8367C356.46 24.8367 356.46 24.7734 356.396 24.7734L356.46 24.71C356.586 24.71 356.65 24.71 356.586 24.8367C356.65 24.8367 356.586 24.8367 356.523 24.8367Z" fill="white"/>
<path d="M220.546 9.18605C220.546 9.12269 220.482 9.12269 220.482 9.05933L220.546 8.99596C220.673 8.99596 220.673 9.05933 220.609 9.18605C220.673 9.18605 220.609 9.18605 220.546 9.18605Z" fill="white"/>
<path d="M151.543 7.85542C151.543 7.79206 151.48 7.79206 151.48 7.7287C151.543 7.7287 151.543 7.66533 151.607 7.66533C151.734 7.66533 151.797 7.7287 151.734 7.79206C151.67 7.85542 151.607 7.85542 151.543 7.85542Z" fill="white"/>
<path d="M249.566 9.69296C249.503 9.62959 249.439 9.56623 249.376 9.56623C249.439 9.56623 249.439 9.50287 249.503 9.50287C249.566 9.50287 249.693 9.50287 249.693 9.56623C249.756 9.62959 249.63 9.69296 249.566 9.69296Z" fill="white"/>
<path d="M184.556 7.0317C184.429 6.96834 184.366 6.90498 184.429 6.84161C184.492 6.77825 184.619 6.77825 184.682 6.77825L184.746 6.90498C184.682 6.96834 184.619 6.96834 184.556 7.0317Z" fill="white"/>
<path d="M359.628 25.0268L359.691 25.0902L359.628 25.0902L359.628 25.0268Z" fill="white"/>
<path d="M323.384 17.2965C323.511 17.2332 323.638 17.1064 323.764 17.0431C323.828 17.0431 323.891 17.0431 323.891 17.0431C323.954 17.1064 323.954 17.2332 323.828 17.2332C323.638 17.2965 323.511 17.2965 323.384 17.2965Z" fill="white"/>
<path d="M26.4646 9.88304C26.4013 9.88304 26.4013 9.9464 26.3379 9.9464C26.2112 9.88304 26.2112 9.81967 26.3379 9.81967C26.3379 9.81967 26.4013 9.88304 26.4646 9.88304Z" fill="white"/>
<path d="M181.197 6.84161C181.261 6.84161 181.261 6.77825 181.324 6.77825C181.387 6.77825 181.387 6.84161 181.451 6.84161C181.387 6.84161 181.387 6.90498 181.324 6.90498C181.261 6.90498 181.197 6.84161 181.197 6.84161Z" fill="white"/>
<path d="M170.236 9.56623L170.299 9.50286L170.362 9.56623L170.299 9.62959L170.236 9.56623Z" fill="white"/>
<path d="M283.402 9.88305L283.465 9.81968L283.529 9.88305L283.402 9.88305Z" fill="white"/>
<path d="M293.984 11.974L293.984 11.8473C293.984 11.9107 293.92 11.974 293.984 11.974Z" fill="white"/>
</svg>
